<?xml version="1.0" encoding="utf-8"?>
<!-- Generator: Adobe Illustrator 23.0.5, SVG Export Plug-In . SVG Version: 6.00 Build 0)  -->
<svg version="1.1" id="Capa_1" xmlns="http://www.w3.org/2000/svg" xmlns:xlink="http://www.w3.org/1999/xlink" x="0px" y="0px"
	 viewBox="0 0 131 32" style="enable-background:new 0 0 131 32;" xml:space="preserve">
<style type="text/css">
	.st0{fill-rule:evenodd;clip-rule:evenodd;fill:#383838;}
	.st1{fill-rule:evenodd;clip-rule:evenodd;fill:url(#SVGID_1_);}
	.st2{fill-rule:evenodd;clip-rule:evenodd;fill:#650D00;}
	.st3{fill-rule:evenodd;clip-rule:evenodd;fill:url(#SVGID_2_);}
	.st4{fill-rule:evenodd;clip-rule:evenodd;fill:#005F33;}
	.st5{fill-rule:evenodd;clip-rule:evenodd;fill:url(#SVGID_3_);}
	.st6{fill-rule:evenodd;clip-rule:evenodd;fill:#007EB5;}
	.st7{fill-rule:evenodd;clip-rule:evenodd;fill:url(#SVGID_4_);}
	.st8{fill-rule:evenodd;clip-rule:evenodd;fill:#0095DA;}
	.st9{fill-rule:evenodd;clip-rule:evenodd;fill:#FECB00;}
	.st10{fill-rule:evenodd;clip-rule:evenodd;fill:#85BC40;}
	.st11{fill-rule:evenodd;clip-rule:evenodd;fill:#89A329;}
	.st12{fill-rule:evenodd;clip-rule:evenodd;fill:#008D4D;}
	.st13{fill-rule:evenodd;clip-rule:evenodd;fill:#DC006D;}
	.st14{fill-rule:evenodd;clip-rule:evenodd;fill:#DA0912;}
</style>
<g>
	<path class="st0" d="M94.4,27l-4.3,0v-3.4v-5.2c0-1.6-3-1.1-3-1.1V28c0,1.1,1,1.9,4,1.5C94.7,29.1,94.5,28,94.4,27"/>
	<path class="st0" d="M27.8,28.7c0,0,0.2-2.2,2.3-1.9c2.3,0.4,5,0.7,4.9-0.8c-0.1-1.5-6.6-1.4-6.6-5.5c-0.1-5.4,9.4-2.7,9.4-2.7
		s0.1,2.2-1.9,2.1c-1.5-0.1-4.4-0.6-4.4,0.6c-0.1,1.4,6.8,1.6,6.6,5.5C37.6,32.2,27.8,28.7,27.8,28.7"/>
	<g>
		<path class="st0" d="M58.4,17.3v7.4l-4-6.3c-0.4-0.6-1.1-0.9-1.7-1.1c-0.3-0.1-0.6-0.1-0.9-0.1c-0.6,0-1,0.1-1,0.1v11.1
			c0,1.6,3,1.1,3,1.1v-7.4l4,6.3c0.4,0.6,1.1,0.9,1.7,1.1c0.3,0.1,0.6,0.1,0.9,0.1c0.6,0,1-0.1,1-0.1V18.4
			C61.4,16.8,58.4,17.3,58.4,17.3"/>
		<path class="st0" d="M114.9,17.3v7.4l-4-6.3c-0.4-0.6-1.1-0.9-1.7-1.1c-0.3-0.1-0.6-0.1-0.9-0.1c-0.6,0-1,0.1-1,0.1v11.1
			c0,1.6,3,1.1,3,1.1v-7.4l4,6.3c0.4,0.6,1.1,0.9,1.7,1.1c0.3,0.1,0.6,0.1,0.9,0.1c0.6,0,1-0.1,1-0.1V18.4
			C117.9,16.8,114.9,17.3,114.9,17.3"/>
		<path class="st0" d="M45.7,18c-0.6-1.4-3.1-0.7-3.1-0.7L38,28.4c-0.6,1.6,2.8,1,2.8,1l0.9-2.4h4.4l0.5,1.4
			c0.7,1.7,3.6,1.1,3.6,1.1L45.7,18z M42.7,24.4l1.3-3.3l1.2,3.3H42.7z"/>
		<path class="st0" d="M126.3,18c-0.6-1.4-3.1-0.7-3.1-0.7l-4.6,11.1c-0.6,1.6,2.8,1,2.8,1l0.9-2.4h4.4l0.5,1.4
			c0.7,1.7,3.6,1.1,3.6,1.1L126.3,18z M123.3,24.4l1.3-3.3l1.2,3.3H123.3z"/>
		<path class="st0" d="M102.3,18c-0.6-1.4-3.1-0.7-3.1-0.7l-4.5,11.1c-0.6,1.6,2.8,1,2.8,1l0.9-2.4h4.4l0.5,1.4
			c0.7,1.7,3.6,1.1,3.6,1.1L102.3,18z M99.3,24.4l1.3-3.3l1.2,3.3H99.3z"/>
		<path class="st0" d="M72,17.3h-8.1c-1.9,0-1.4,2.7-1.4,2.7h0h3.2v8.5c0,1.6,3,1.1,3,1.1v-9.5h1.8C72.6,19.9,72,17.3,72,17.3"/>
		<path class="st0" d="M73.2,17.3v11.1c0,1.6,3,1.1,3,1.1V18.4C76.2,16.8,73.2,17.3,73.2,17.3"/>
		<path class="st0" d="M86.3,27h-5.1v-8.6c0-1.6-3-1.1-3-1.1V28c0,1.4,1.4,1.9,4.8,1.5C86.6,29.1,86.5,28,86.3,27"/>
		
			<linearGradient id="SVGID_1_" gradientUnits="userSpaceOnUse" x1="-213.7156" y1="429.6494" x2="-212.7156" y2="429.6494" gradientTransform="matrix(-16.534 11.5013 40.8977 4.6497 -21078.0176 461.0414)">
			<stop  offset="0" style="stop-color:#86A027"/>
			<stop  offset="1" style="stop-color:#34440D"/>
		</linearGradient>
		<path class="st1" d="M4.4,10.9c0,0.7,2.2,1.5,2.2,1.5l16.7-2.9l1.8-1.7l-4-1.2h-1.5h-6.5C13.1,6.6,4.4,10.2,4.4,10.9z"/>
		<path class="st2" d="M2.2,6.6L1.5,8l0.7,0.7l0.7,0.7l1.5-0.7l7.1-3.9l-2-0.4L2.9,5.8L2.2,6.6z"/>
		
			<linearGradient id="SVGID_2_" gradientUnits="userSpaceOnUse" x1="-181.1715" y1="425.5517" x2="-180.1715" y2="425.5517" gradientTransform="matrix(0 6.4425 19.1209 0 -8124.7407 1172.0654)">
			<stop  offset="0" style="stop-color:#E1B400"/>
			<stop  offset="1" style="stop-color:#A38200"/>
		</linearGradient>
		<path class="st3" d="M9.1,5.6C7.7,6.1,4.7,7.3,2.6,9.2c0.5,0.8,1.3,1.5,2.2,2.1c3.5-2.9,10.1-4.6,15.4-4.6c0.5,0,1,0,1.5,0
			c0,0,0,0,0,0c0,0-0.1,0-0.1,0c-0.2-0.1-0.5-0.2-0.7-0.3c-1.6-0.6-5.5-1.4-9.5-1.6C10.7,5.1,9.9,5.3,9.1,5.6z"/>
		<path class="st4" d="M16.9,15.3L16,14.6l-2.9,0.7V16h1.5L16.9,15.3z"/>
		
			<linearGradient id="SVGID_3_" gradientUnits="userSpaceOnUse" x1="-217.97" y1="454.1473" x2="-216.97" y2="454.1473" gradientTransform="matrix(-26.443 4.9293 19.9121 6.546 -14781.624 -1897.1188)">
			<stop  offset="0" style="stop-color:#DC006D"/>
			<stop  offset="1" style="stop-color:#88014C"/>
		</linearGradient>
		<path class="st5" d="M16.7,0C11,0.1,5.4,1.6,2.5,5.5C2.1,6.1,2,6.6,2,7.2c0,0,0,0.1,0,0.1c2-1.8,5.3-2.4,8.7-2.4
			c0.3,0,0.6,0,0.8,0c4.8-1.2,10.5-1.3,16.5-1.3c1.1,0,2.2,0,3.3,0c0.1,0,0.2,0,0.2-0.1v0c0-0.1-0.2-0.3-0.4-0.3
			C28,1.4,22.6,0,17.3,0L16.7,0z"/>
		<path class="st6" d="M16.6,15.1c-0.7,0.2-1.4,0.4-2,0.7c0.6,0.3,0.9,0.7,0.9,1.1c0,0.3-0.2,0.6-0.5,0.9c-1.7,1.6-4,2.4-6.3,2.4
			c0,0-0.1,0-0.1,0c0.2,0,0.4,0.1,0.7,0.1c0.8,0.1,1.5,0.3,2.3,0.6c0.6,0.2,1.2,0.4,1.8,0.6c1.4-0.7,3.5-1.3,6.3-1.6
			c3.6-0.4,4.7-0.9,4.7-1.5v-0.1c0-0.1-0.1-0.2-0.1-0.3c0,0,0,0,0,0c-0.4-0.5-1-0.9-1.7-1.3c0,0,0,0,0,0
			C20.8,15.7,18.2,15.2,16.6,15.1z"/>
		
			<linearGradient id="SVGID_4_" gradientUnits="userSpaceOnUse" x1="-231.3394" y1="366.8426" x2="-230.3394" y2="366.8426" gradientTransform="matrix(27.7117 0 0 -8.211 6417.0679 3023.1523)">
			<stop  offset="0" style="stop-color:#527E30"/>
			<stop  offset="1" style="stop-color:#85BD40"/>
		</linearGradient>
		<path class="st7" d="M21.5,9c-0.1,0-9.4,0.8-15.3,3.3c2.6,1.5,5.6,2.6,6.9,2.9c0,0,0.1,0,0.1,0c0.8-0.1,1.7-0.2,2.4-0.2
			c0.2,0,0.5,0,0.9,0.1c2-0.6,4.4-1,7.3-1.3h0c0,0,0,0,0,0h0c0,0,0,0,0.1,0h0c0,0,0,0,0,0c0,0,0,0,0,0c0,0,0,0,0,0h0c0,0,0,0,0,0
			c0,0,0,0,0,0h0c0,0,0,0,0,0h0c0,0,0,0,0,0c0,0,0,0,0,0c0,0,0,0,0,0h0c0,0,0,0,0,0h0h0c0,0,0,0,0,0c0,0,0,0,0,0c0,0,0,0,0,0
			c0,0,0,0,0,0c0,0,0,0,0,0h0c0,0,0,0,0,0c12.4-1,14.3-4.8,2.4-6.5h0c0,0,0,0,0,0c-1.5-0.2-3.2-0.4-5.1-0.5
			C24.3,7.9,23.9,8.6,21.5,9"/>
		<path class="st8" d="M16.6,30.4c-0.3,0.4-1.1,0.8-1.7,0.9c-1.7,0.3-2.3-0.3-2-0.9c0.3-0.6,1.5-1.1,3.2-0.9
			C17,29.7,16.9,30.1,16.6,30.4"/>
		<path class="st9" d="M0.5,9.8C0.5,9.8,0.5,9.8,0.5,9.8C0.5,9.8,0.5,9.8,0.5,9.8C0.5,9.8,0.5,9.9,0.5,9.8L0.5,9.8
			c-0.7,2.8-0.6,5.8-0.1,8.5v0c-0.1-0.4-0.1-0.7-0.2-1.1c1.6,5.1,9.7,7.5,13.9,8.4c1.2-0.9,4.6,0.1,5-2.2c0,0,0-0.1,0-0.1
			c0-1-1.1-1.1-1.6-1.1c-0.6,0-3-0.4-5.9-1.5c-0.8-0.3-1.5-0.5-2.3-0.6c-0.2,0-0.4-0.1-0.7-0.1c-4.1-0.1-8-2.4-8.6-5.8
			C0,12.7,0.2,11.3,0.5,9.8C0.5,9.8,0.5,9.8,0.5,9.8"/>
		<path class="st8" d="M2.4,24.1c0.8,1.5,1.7,2.9,2.6,3.8c1.7,1.6,3.4,2.2,4.8,2.2c0.6,0,1.2-0.1,1.6-0.3c0.2-0.1,0.4-0.3,0.4-0.4
			c0-0.3-0.6-0.7-1.6-1.1c-0.5-0.2-1.1-0.4-1.7-0.7c0.3,0.1,0.5,0.2,0.7,0.3C5.4,27.6,3.4,25.8,2.4,24.1"/>
		<path class="st10" d="M0.4,18.3C0.4,18.3,0.4,18.3,0.4,18.3c0.3,1.4,0.6,2.7,1.1,3.9c1.3,2.5,4.1,4.1,6.4,5.1c0,0,0,0,0,0
			c1.1,0.4,2.2,0.6,3.3,0.6c1.5,0,2.9-0.5,3.7-1.5c0.1-0.1,0.1-0.2,0.1-0.2c0-0.3-0.8-0.5-0.9-0.5c-0.4,0-0.8,0-1.2,0
			C6.8,25.6,1.8,23.1,0.4,18.3"/>
		<path class="st11" d="M0.2,17.2c0.1,0.4,0.1,0.7,0.2,1.1c1.4,4.8,6.4,7.4,12.6,7.4c0.4,0,0.8,0,1.1,0C9.9,24.7,1.8,22.3,0.2,17.2"
			/>
		<path class="st12" d="M1.5,22.2c0.3,0.7,0.5,1.3,0.9,1.9c1,1.8,3,3.6,6.8,3.7c-0.2-0.1-0.5-0.2-0.7-0.3c0,0-0.1,0-0.1-0.1
			c0,0-0.1,0-0.1-0.1c-0.1,0-0.2-0.1-0.3-0.1C5.7,26.2,2.8,24.7,1.5,22.2"/>
		<path class="st13" d="M2.5,5.4C2.3,5.7,2,6.1,1.7,6.7C1.5,7,1.4,7.3,1.2,7.6C1,8.2,0.8,8.7,0.7,9.1C0.6,9.3,0.6,9.6,0.5,9.8
			C0,14.4,6.3,18.4,9.8,20c-0.3,0-0.5,0-0.9,0c-0.1,0-0.3,0-0.4,0c0,0,0.1,0,0.1,0c0,0,0.1,0,0.1,0c2.3,0,4.6-0.7,6.3-2.4
			c0.3-0.3,0.5-0.6,0.5-0.9c0-0.4-0.3-0.8-0.9-1.1c-0.3-0.2-0.8-0.4-1.3-0.5c0,0-0.1,0-0.1,0c-1.3-0.4-4.3-1.4-6.9-2.9
			c-0.5-0.3-1-0.6-1.4-0.9c-0.9-0.7-1.7-1.4-2.2-2.1C2.2,8.6,2,7.9,2,7.3c0,0,0-0.1,0-0.1C2,6.6,2.1,6,2.5,5.4"/>
		<path class="st14" d="M0.5,9.8C0.2,11.3,0,12.7,0,14.2c0.6,3.4,4.6,5.8,8.6,5.8c0,0,0,0,0,0h0c0,0-0.1,0-0.1,0c0.1,0,0.3,0,0.4,0
			c0.3,0,0.6,0,0.9,0C6.2,18.4,0,14.4,0.5,9.8"/>
	</g>
</g>
</svg>
